# This file uses centimeters as units for non-parametric coordinates.

mtllib Wrench.mtl
g default
v -1.000000 -0.125000 6.000000
v 1.000000 -0.125000 6.000000
v -1.000000 0.125000 6.000000
v 1.000000 0.125000 6.000000
v -0.250000 0.125000 -5.750000
v 0.250000 0.125000 -5.750000
v -0.250000 -0.125000 -5.750000
v 0.250000 -0.125000 -5.750000
v -0.500000 -0.125000 7.500000
v 0.500000 -0.125000 7.500000
v 0.500000 0.125000 7.500000
v -0.500000 0.125000 7.500000
v 1.750000 -0.125000 6.500000
v 1.750000 0.125000 6.500000
v 1.000000 0.125000 8.000000
v 1.000000 -0.125000 8.000000
v -1.750000 -0.125000 6.500000
v -1.750000 0.125000 6.500000
v -1.000000 -0.125000 8.000000
v -1.000000 0.125000 8.000000
v 2.250000 -0.125000 8.000000
v 2.250000 0.125000 8.000000
v 1.000000 0.125000 10.250001
v 1.000000 -0.125000 10.250001
v -2.250000 -0.125000 8.000000
v -2.250000 0.125000 8.000000
v -1.000000 -0.125000 10.250001
v -1.000000 0.125000 10.250001
v -1.500000 0.125000 10.000000
v -1.776042 0.125000 7.507811
v -0.776042 0.125000 6.895832
v 0.776042 0.125000 6.895832
v 1.776042 0.125000 7.507811
v 1.500000 0.125000 10.000000
v 1.500000 -0.125000 10.000000
v 1.776042 -0.125000 7.507811
v 0.776042 -0.125000 6.895832
v -0.776042 -0.125000 6.895832
v -1.776042 -0.125000 7.507811
v -1.500000 -0.125000 10.000000
v -0.500000 0.125000 0.000000
v -0.500000 -0.125000 0.000000
v 0.500000 -0.125000 0.000000
v 0.500000 0.125000 0.000000
v -0.500000 0.125000 3.000000
v -0.500000 -0.125000 3.000000
v 0.500000 -0.125000 3.000000
v 0.500000 0.125000 3.000000
v -0.500000 0.125000 -3.000000
v -0.500000 -0.125000 -3.000000
v 0.500000 -0.125000 -3.000000
v 0.500000 0.125000 -3.000000
v -0.750000 0.125000 4.500000
v -0.750000 -0.125000 4.500000
v 0.750000 -0.125000 4.500000
v 0.750000 0.125000 4.500000
v -1.000000 0.125000 -4.500000
v -1.000000 -0.125000 -4.500000
v 1.000000 -0.125000 -4.500000
v 1.000000 0.125000 -4.500000
v -0.750000 0.125000 -5.250000
v -0.750000 -0.125000 -5.250000
v 0.750000 -0.125000 -5.250000
v 0.750000 0.125000 -5.250000
v -0.750000 0.125000 -4.000000
v -0.750000 -0.125000 -4.000000
v 0.750000 -0.125000 -4.000000
v 0.750000 0.125000 -4.000000
v -1.888021 0.125000 8.503906
v -2.062500 0.125000 7.125000
v -2.062500 -0.125000 7.125000
v -1.888021 -0.125000 8.503906
v -1.000000 -0.125000 9.500001
v -1.000000 0.125000 9.500001
v 1.888021 0.125000 8.503906
v 2.062500 0.125000 7.125000
v 2.062500 -0.125000 7.125000
v 1.888021 -0.125000 8.503906
v 1.000000 -0.125000 9.500001
v 1.000000 0.125000 9.500001
v -2.000000 0.125000 9.249999
v -1.975260 0.125000 7.814453
v -1.763021 0.125000 7.003906
v -0.888021 0.125000 6.447916
v 0.888021 0.125000 6.447916
v 1.763021 0.125000 7.003906
v 1.975260 0.125000 7.814453
v 2.000000 0.125000 9.249999
v 2.000000 -0.125000 9.249999
v 1.975260 -0.125000 7.814453
v 1.763021 -0.125000 7.003906
v 0.888021 -0.125000 6.447916
v -0.888021 -0.125000 6.447916
v -1.763021 -0.125000 7.003906
v -1.975260 -0.125000 7.814453
v -2.000000 -0.125000 9.249999
vt 0.576307 0.733441
vt 0.576307 0.640065
vt 0.591870 0.640065
vt 0.591870 0.733441
vt 0.576307 0.546688
vt 0.591870 0.546688
vt 0.591870 0.764567
vt 0.576307 0.764567
vt 0.576307 0.359935
vt 0.591870 0.359935
vt 0.591870 0.803474
vt 0.576307 0.803474
vt 0.576307 0.173182
vt 0.591870 0.173182
vt 0.591870 0.857943
vt 0.576307 0.857943
vt 0.576307 0.110931
vt 0.591870 0.110931
vt 0.591870 0.935757
vt 0.576307 0.935757
vt 0.576307 0.079806
vt 0.591870 0.079806
vt 0.591870 0.982445
vt 0.576307 0.982445
vt 0.576307 0.033118
vt 0.591870 0.033118
vt 0.576307 0.001992
vt 0.591870 0.001992
vt 0.598268 0.344373
vt 0.598268 0.250996
vt 0.613830 0.250996
vt 0.613830 0.344373
vt 0.598268 0.219871
vt 0.613830 0.219871
vt 0.598268 0.437749
vt 0.613830 0.437749
vt 0.598268 0.180964
vt 0.613830 0.180964
vt 0.598268 0.624502
vt 0.613830 0.624502
vt 0.598268 0.126494
vt 0.613830 0.126494
vt 0.598268 0.811255
vt 0.613830 0.811255
vt 0.598268 0.048680
vt 0.613830 0.048680
vt 0.598268 0.873506
vt 0.613830 0.873506
vt 0.598268 0.001992
vt 0.613830 0.001992
vt 0.598268 0.904631
vt 0.613830 0.904631
vt 0.598268 0.951320
vt 0.613830 0.951320
vt 0.598268 0.982445
vt 0.613830 0.982445
vt 0.635791 0.142057
vt 0.620228 0.142057
vt 0.620228 0.048680
vt 0.635791 0.048680
vt 0.635791 0.173182
vt 0.620228 0.173182
vt 0.620228 0.001992
vt 0.635791 0.001992
vt 0.642189 0.126494
vt 0.657752 0.126494
vt 0.657752 0.173182
vt 0.642189 0.173182
vt 0.642189 0.033118
vt 0.657752 0.033118
vt 0.642189 0.001992
vt 0.657752 0.001992
vt 0.079302 0.266559
vt 0.203804 0.266559
vt 0.188241 0.359935
vt 0.094865 0.359935
vt 0.086273 0.238676
vt 0.196833 0.238676
vt 0.172678 0.453312
vt 0.110427 0.453312
vt 0.032614 0.235433
vt 0.031803 0.204065
vt 0.093244 0.210792
vt 0.189862 0.210792
vt 0.251303 0.204065
vt 0.250492 0.235433
vt 0.172678 0.640065
vt 0.110427 0.640065
vt 0.013160 0.196527
vt 0.018591 0.153607
vt 0.030993 0.172696
vt 0.110427 0.173182
vt 0.172678 0.173182
vt 0.252113 0.172696
vt 0.264515 0.153607
vt 0.269946 0.196527
vt 0.172678 0.826818
vt 0.110427 0.826818
vt 0.001488 0.142057
vt 0.017051 0.064243
vt 0.024022 0.110688
vt 0.079302 0.142057
vt 0.203804 0.142057
vt 0.259084 0.110688
vt 0.266055 0.064243
vt 0.281618 0.142057
vt 0.188241 0.889069
vt 0.094865 0.889069
vt 0.048176 0.017555
vt 0.079302 0.048680
vt 0.203804 0.048680
vt 0.234929 0.017555
vt 0.203804 0.920194
vt 0.079302 0.920194
vt 0.079302 0.001992
vt 0.203804 0.001992
vt 0.188241 0.966882
vt 0.094865 0.966882
vt 0.157116 0.998008
vt 0.125990 0.998008
vt 0.382366 0.640065
vt 0.475742 0.640065
vt 0.491305 0.733441
vt 0.366803 0.733441
vt 0.397928 0.546688
vt 0.460179 0.546688
vt 0.484334 0.761324
vt 0.373774 0.761324
vt 0.397928 0.359935
vt 0.460179 0.359935
vt 0.537993 0.764567
vt 0.538804 0.795935
vt 0.477363 0.789208
vt 0.380745 0.789208
vt 0.319304 0.795935
vt 0.320115 0.764567
vt 0.397928 0.173182
vt 0.460179 0.173182
vt 0.557446 0.803474
vt 0.552016 0.846393
vt 0.539614 0.827304
vt 0.460179 0.826818
vt 0.397928 0.826818
vt 0.318494 0.827304
vt 0.306092 0.846393
vt 0.300661 0.803474
vt 0.382366 0.110931
vt 0.475742 0.110931
vt 0.569119 0.857943
vt 0.553556 0.935757
vt 0.546585 0.889312
vt 0.491305 0.857943
vt 0.366803 0.857943
vt 0.311523 0.889312
vt 0.304552 0.935757
vt 0.288989 0.857943
vt 0.366803 0.079806
vt 0.491305 0.079806
vt 0.522430 0.982445
vt 0.491305 0.951320
vt 0.366803 0.951320
vt 0.335677 0.982445
vt 0.382366 0.033118
vt 0.475742 0.033118
vt 0.491305 0.998008
vt 0.366803 0.998008
vt 0.413491 0.001992
vt 0.444617 0.001992
vt 0.664150 0.064243
vt 0.664150 0.001992
vt 0.679712 0.001992
vt 0.679712 0.064243
vt 0.686110 0.033118
vt 0.686110 0.001992
vt 0.701673 0.001992
vt 0.701673 0.033118
vt 0.708071 0.001992
vt 0.723633 0.001992
vt 0.723633 0.033118
vt 0.708071 0.033118
vt 0.745594 0.033118
vt 0.730031 0.033118
vt 0.730031 0.001992
vt 0.745594 0.001992
vn 0.316228 0.000000 0.948683
vn -0.316228 0.000000 0.948683
vn -0.316228 0.000000 0.948683
vn 0.316228 0.000000 0.948683
vn 0.000000 1.000000 0.000000
vn 0.000000 1.000000 0.000000
vn 0.000000 1.000000 0.000000
vn 0.000000 1.000000 0.000000
vn 0.000000 0.000000 -1.000000
vn 0.000000 0.000000 -1.000000
vn 0.000000 0.000000 -1.000000
vn 0.000000 0.000000 -1.000000
vn 0.000000 -1.000000 0.000000
vn 0.000000 -1.000000 0.000000
vn 0.000000 -1.000000 0.000000
vn 0.000000 -1.000000 0.000000
vn 0.986394 0.000000 -0.164399
vn 0.986394 0.000000 -0.164399
vn 0.986394 0.000000 -0.164399
vn 0.986394 0.000000 -0.164399
vn -0.986394 0.000000 -0.164399
vn -0.986394 0.000000 -0.164399
vn -0.986394 0.000000 -0.164399
vn -0.986394 0.000000 -0.164399
vn 0.000000 -1.000000 -0.000000
vn 0.000000 -1.000000 -0.000000
vn 0.980581 0.000000 0.196116
vn 0.980581 0.000000 0.196116
vn 0.936329 0.000000 0.351123
vn 0.936329 0.000000 0.351123
vn 0.000000 1.000000 -0.000000
vn 0.000000 1.000000 -0.000000
vn -0.980581 0.000000 0.196116
vn -0.980581 0.000000 0.196116
vn -0.936329 0.000000 0.351123
vn -0.936329 0.000000 0.351123
vn 0.554700 0.000000 -0.832050
vn 0.554700 0.000000 -0.832050
vn 0.727013 0.000000 -0.686624
vn 0.727013 0.000000 -0.686624
vn 0.000000 1.000000 0.000000
vn 0.000000 1.000000 0.000000
vn -0.970143 0.000000 0.242536
vn -0.970143 0.000000 0.242536
vn 0.000000 -1.000000 0.000000
vn 0.000000 -1.000000 0.000000
vn -0.554700 0.000000 -0.832050
vn -0.554700 0.000000 -0.832050
vn -0.727013 0.000000 -0.686624
vn -0.727013 0.000000 -0.686624
vn 0.000000 -1.000000 0.000000
vn 0.000000 -1.000000 0.000000
vn 0.970143 0.000000 0.242536
vn 0.970143 0.000000 0.242536
vn 0.000000 1.000000 0.000000
vn 0.000000 1.000000 0.000000
vn 0.948683 0.000000 -0.316228
vn 0.948683 0.000000 -0.316228
vn 0.000000 1.000000 0.000000
vn 0.000000 1.000000 0.000000
vn -1.000000 0.000000 0.000000
vn -1.000000 0.000000 0.000000
vn 0.000000 -1.000000 0.000000
vn 0.000000 -1.000000 0.000000
vn -0.948683 0.000000 -0.316228
vn -0.948683 0.000000 -0.316228
vn -0.977802 0.000000 -0.209529
vn -0.977802 0.000000 -0.209529
vn 0.000000 -1.000000 0.000000
vn 0.000000 -1.000000 0.000000
vn 0.000000 -1.000000 0.000000
vn 0.000000 -1.000000 0.000000
vn 1.000000 0.000000 0.000000
vn 1.000000 0.000000 0.000000
vn 1.000000 0.000000 0.000000
vn 1.000000 0.000000 0.000000
vn 0.000000 1.000000 0.000000
vn 0.000000 1.000000 0.000000
vn 0.000000 1.000000 0.000000
vn 0.000000 1.000000 0.000000
vn 0.000000 1.000000 0.000000
vn 0.000000 1.000000 0.000000
vn 0.000000 1.000000 0.000000
vn 0.000000 1.000000 0.000000
vn 0.000000 1.000000 -0.000000
vn 0.000000 1.000000 -0.000000
vn 0.000000 1.000000 0.000000
vn 0.000000 1.000000 0.000000
vn 0.000000 1.000000 -0.000000
vn 0.000000 1.000000 -0.000000
vn 0.000000 1.000000 0.000000
vn 0.000000 1.000000 0.000000
vn 0.000000 1.000000 0.000000
vn 0.000000 1.000000 0.000000
vn 0.707107 0.000000 0.707106
vn 0.707107 0.000000 0.707106
vn 0.447215 0.000000 0.894427
vn 0.447215 0.000000 0.894427
vn 0.000000 -1.000000 0.000000
vn 0.000000 -1.000000 0.000000
vn 0.000000 -1.000000 0.000000
vn 0.000000 -1.000000 0.000000
vn 0.000000 -1.000000 -0.000000
vn 0.000000 -1.000000 -0.000000
vn 0.000000 -1.000000 -0.000000
vn 0.000000 -1.000000 -0.000000
vn 0.000000 -1.000000 0.000000
vn 0.000000 -1.000000 0.000000
vn 0.000000 -1.000000 0.000000
vn 0.000000 -1.000000 0.000000
vn 0.000000 -1.000000 0.000000
vn 0.000000 -1.000000 0.000000
vn -0.707107 0.000000 0.707106
vn -0.707107 0.000000 0.707106
vn -0.447215 0.000000 0.894427
vn -0.447215 0.000000 0.894427
vn -0.998053 0.000000 0.062378
vn -1.000000 0.000000 0.000000
vn -1.000000 0.000000 0.000000
vn -0.998053 0.000000 0.062378
vn 0.000000 -1.000000 0.000000
vn 0.000000 -1.000000 0.000000
vn 0.000000 -1.000000 0.000000
vn 0.000000 -1.000000 0.000000
vn 1.000000 0.000000 0.000000
vn 1.000000 0.000000 0.000000
vn 0.998053 0.000000 0.062378
vn 0.998053 0.000000 0.062378
vn 0.000000 1.000000 0.000000
vn 0.000000 1.000000 0.000000
vn 0.000000 1.000000 0.000000
vn 0.000000 1.000000 0.000000
vn -0.998460 0.000000 -0.055470
vn -0.998460 0.000000 -0.055470
vn 0.000000 -1.000000 0.000000
vn 0.000000 -1.000000 0.000000
vn 0.998460 0.000000 -0.055470
vn 0.998460 0.000000 -0.055470
vn 0.000000 1.000000 0.000000
vn 0.000000 1.000000 0.000000
vn -0.948683 0.000000 0.316228
vn -0.948683 0.000000 0.316228
vn 0.000000 -1.000000 0.000000
vn 0.000000 -1.000000 0.000000
vn 0.948683 0.000000 0.316228
vn 0.948683 0.000000 0.316228
vn 0.000000 1.000000 0.000000
vn 0.000000 1.000000 0.000000
vn -0.857493 0.000000 -0.514496
vn -1.000000 0.000000 0.000000
vn -1.000000 0.000000 0.000000
vn -0.857493 0.000000 -0.514496
vn 0.000000 -1.000000 0.000000
vn 0.000000 -1.000000 0.000000
vn 0.000000 -1.000000 0.000000
vn 0.000000 -1.000000 0.000000
vn 1.000000 0.000000 0.000000
vn 1.000000 0.000000 0.000000
vn 0.857493 0.000000 -0.514496
vn 0.857493 0.000000 -0.514496
vn 0.000000 1.000000 0.000000
vn 0.000000 1.000000 0.000000
vn 0.000000 1.000000 0.000000
vn 0.000000 1.000000 0.000000
vn -0.707106 0.000000 -0.707107
vn -0.707106 0.000000 -0.707107
vn 0.000000 -1.000000 0.000000
vn 0.000000 -1.000000 0.000000
vn 0.707106 0.000000 -0.707107
vn 0.707106 0.000000 -0.707107
vn 0.000000 1.000000 0.000000
vn 0.000000 1.000000 0.000000
vn 0.000000 1.000000 0.000000
vn 0.000000 1.000000 0.000000
vn 0.977802 0.000000 -0.209529
vn 0.977802 0.000000 -0.209529
vn 0.000000 -1.000000 0.000000
vn 0.000000 -1.000000 0.000000
vn 0.000000 -1.000000 0.000000
vn 0.000000 -1.000000 0.000000
vn -1.000000 0.000000 0.000000
vn -1.000000 0.000000 0.000000
vn 0.000000 1.000000 0.000000
vn 0.000000 1.000000 0.000000
s 1
g WrenchMesh
usemtl lambert2SG
f 9/169/1 10/170/2 11/171/3 12/172/4
s 2
f 3/73/5 4/74/6 56/75/7 53/76/8
s off
f 5/173/9 6/174/10 8/175/11 7/176/12
s 3
f 54/121/13 55/122/14 2/123/15 1/124/16
s 4
f 2/1/17 55/2/18 56/3/19 4/4/20
s 5
f 54/29/21 1/30/22 3/31/23 53/32/24
s 3
f 1/124/16 2/123/15 92/127/25 93/128/26
s 6
f 21/16/27 22/15/28 88/19/29 89/20/30
s 2
f 4/74/6 3/73/5 84/77/31 85/78/32
s 7
f 26/42/33 25/41/34 96/45/35 81/46/36
s 8
f 2/1/37 4/4/38 14/7/39 13/8/40
s 2
f 4/74/6 85/78/32 86/85/41 14/86/42
s 1
f 11/61/3 10/62/2 16/58/43 15/57/44
s 3
f 92/127/25 2/123/15 13/131/45 91/132/46
s 9
f 3/31/47 1/30/48 17/33/49 18/34/50
s 3
f 1/124/16 93/128/26 94/135/51 17/136/52
s 1
f 9/71/1 12/72/4 20/70/53 19/69/54
s 2
f 84/77/31 3/73/5 18/81/55 83/82/56
s 8
f 13/8/40 14/7/39 76/11/57 77/12/58
s 2
f 14/86/42 86/85/41 87/95/59 76/96/60
s 1
f 15/57/44 16/58/43 79/59/61 80/60/62
s 3
f 91/132/46 13/131/45 77/139/63 90/140/64
s 9
f 70/38/65 71/37/66 25/41/67 26/42/68
s 3
f 71/146/69 95/145/70 96/155/71 25/156/72
s 1
f 73/65/73 74/66/74 28/67/75 27/68/76
s 2
f 82/90/77 70/89/78 26/99/79 81/100/80
f 74/110/81 69/101/82 29/109/83 28/115/84
f 12/92/85 31/83/86 30/91/87 20/102/88
f 32/84/89 31/83/86 12/92/85 11/93/90
f 33/94/91 32/84/89 11/93/90 15/103/92
f 80/111/93 75/104/94 33/94/91 15/103/92
s 6
f 35/177/95 34/178/96 23/179/97 24/180/98
s 3
f 16/152/99 36/141/100 78/151/101 79/160/102
f 10/142/103 37/133/104 36/141/100 16/152/99
f 38/134/105 37/133/104 10/142/103 9/143/106
f 39/144/107 38/134/105 9/143/106 19/153/108
f 40/162/109 72/154/110 73/161/111 27/166/112
s 7
f 29/181/113 40/182/114 27/183/115 28/184/116
s 5
f 50/43/117 42/39/118 41/40/119 49/44/120
s 3
f 50/137/121 51/138/122 43/130/123 42/129/124
s 4
f 44/10/125 43/9/126 51/13/127 52/14/128
s 2
f 41/88/129 44/87/130 52/97/131 49/98/132
s 5
f 42/39/118 46/35/133 45/36/134 41/40/119
s 3
f 42/129/124 43/130/123 47/126/135 46/125/136
s 4
f 48/6/137 47/5/138 43/9/126 44/10/125
s 2
f 45/80/139 48/79/140 44/87/130 41/88/129
s 5
f 66/47/141 50/43/117 49/44/120 65/48/142
s 3
f 66/147/143 67/148/144 51/138/122 50/137/121
s 4
f 52/14/128 51/13/127 67/17/145 68/18/146
s 2
f 49/98/132 52/97/131 68/107/147 65/108/148
s 5
f 46/35/133 54/29/21 53/32/24 45/36/134
s 3
f 46/125/136 47/126/135 55/122/14 54/121/13
s 4
f 56/3/19 55/2/18 47/5/138 48/6/137
s 2
f 53/76/8 56/75/7 48/79/140 45/80/139
s 5
f 62/53/149 58/51/150 57/52/151 61/54/152
s 3
f 62/163/153 63/164/154 59/158/155 58/157/156
s 4
f 60/22/157 59/21/158 63/25/159 64/26/160
s 2
f 57/114/161 60/113/162 64/117/163 61/118/164
s 5
f 7/55/165 62/53/149 61/54/152 5/56/166
s 3
f 7/167/167 8/168/168 63/164/154 62/163/153
s 4
f 64/26/160 63/25/159 8/27/169 6/28/170
s 2
f 61/118/164 64/117/163 6/119/171 5/120/172
s 5
f 58/51/150 66/47/141 65/48/142 57/52/151
s 3
f 58/157/156 59/158/155 67/148/144 66/147/143
s 4
f 68/18/146 67/17/145 59/21/158 60/22/157
s 2
f 65/108/148 68/107/147 60/113/162 57/114/161
f 83/82/56 18/81/55 70/89/78 82/90/77
s 9
f 18/34/50 17/33/49 71/37/66 70/38/65
s 3
f 17/136/52 94/135/51 95/145/70 71/146/69
f 73/161/111 72/154/110 39/144/107 19/153/108
s 1
f 19/69/54 20/70/53 74/66/74 73/65/73
s 2
f 20/102/88 30/91/87 69/101/82 74/110/81
f 76/96/60 87/95/59 88/105/173 22/106/174
s 8
f 77/12/58 76/11/57 22/15/175 21/16/176
s 3
f 90/140/64 77/139/63 21/149/177 89/150/178
f 79/160/102 78/151/101 35/159/179 24/165/180
s 1
f 80/60/62 79/59/61 24/63/181 23/64/182
s 2
f 34/112/183 75/104/94 80/111/93 23/116/184
f 69/101/82 82/90/77 81/100/80 29/109/83
f 30/91/87 83/82/56 82/90/77 69/101/82
f 31/83/86 84/77/31 83/82/56 30/91/87
f 85/78/32 84/77/31 31/83/86 32/84/89
f 86/85/41 85/78/32 32/84/89 33/94/91
f 87/95/59 86/85/41 33/94/91 75/104/94
f 88/105/173 87/95/59 75/104/94 34/112/183
s 6
f 89/20/30 88/19/29 34/23/96 35/24/95
s 3
f 78/151/101 90/140/64 89/150/178 35/159/179
f 36/141/100 91/132/46 90/140/64 78/151/101
f 37/133/104 92/127/25 91/132/46 36/141/100
f 93/128/26 92/127/25 37/133/104 38/134/105
f 94/135/51 93/128/26 38/134/105 39/144/107
f 95/145/70 94/135/51 39/144/107 72/154/110
f 96/155/71 95/145/70 72/154/110 40/162/109
s 7
f 81/46/36 96/45/35 40/49/114 29/50/113
